PathFileType	4	(X/Y/Z)	Patient4_TMGait_0pt7_02_right_20.trc.trc
DataRate	CameraRate	NumFrames	NumMarkers	Units	OrigDataRate	OrigDataStartFrame	OrigNumFrames
85.889570552147	85.889570552147	4	33	mm	85.889570552147	89	       141
Frame#	Time	Sacral			L.Shoulder			Chest			R.Shoulder			Neck			R.ASIS			L.ASIS			R.Thigh.Superior			R.Thigh.Lateral			R.Thigh.Inferior			R.Patella			L.Thigh.Superior			L.Thigh.Lateral			L.Thigh.Inferior			L.Patella			L.Shank.Superior			L.Shank.Lateral			L.Shank.Inferior			R.Shank.Superior			R.Shank.Lateral			R.Shank.Inferior			R.Heel			R.Midfoot.Superior			R.Midfoot.Lateral			R.Toe			L.Heel			L.Midfoot.Lateral			L.Midfoot.Superior			L.Toe			L.Elbow			L.Wrist			R.Elbow			R.Wrist			
		X1	Y1	Z1	X2	Y2	Z2	X3	Y3	Z3	X4	Y4	Z4	X5	Y5	Z5	X6	Y6	Z6	X7	Y7	Z7	X8	Y8	Z8	X9	Y9	Z9	X10	Y10	Z10	X11	Y11	Z11	X12	Y12	Z12	X13	Y13	Z13	X14	Y14	Z14	X15	Y15	Z15	X16	Y16	Z16	X17	Y17	Z17	X18	Y18	Z18	X19	Y19	Z19	X20	Y20	Z20	X21	Y21	Z21	X22	Y22	Z22	X23	Y23	Z23	X24	Y24	Z24	X25	Y25	Z25	X26	Y26	Z26	X27	Y27	Z27	X28	Y28	Z28	X29	Y29	Z29	X30	Y30	Z30	X31	Y31	Z31	X32	Y32	Z32	X33	Y33	Z33	

89	23.114571428571	848.523475671471	1005.014938911498	475.717745049806	1010.248101753280	1426.322457386741	279.520399322635	1133.570955602567	1352.640140103421	424.419432573601	1078.435564154701	1434.294461716715	605.617560620298	1038.137069271590	1487.338719463490	431.549098958610	1075.845572252270	936.187000743202	582.752190309842	1054.987932809215	951.781415973015	308.697613290505	1101.470329225809	727.425534756374	568.569473940099	1013.204492577326	623.590310250822	632.953980266789	1091.076463516696	559.161884689336	561.477941530749	1075.308778645638	451.412169538731	582.224230319741	1129.834266259103	764.717671563927	345.048586556332	1063.336688501958	636.042551440286	282.384512180638	1160.196133930205	571.448638695274	345.751721761793	1172.518863783704	499.977508684677	353.321104460461	1147.702906129137	424.821855865844	344.184621969209	1064.751160980064	306.952244946391	290.644955245838	1121.464091234446	196.811407445298	358.501521775649	995.690739301867	386.782993495299	587.399451224995	873.393623923953	349.568828814555	647.003845836272	856.717462979877	241.519472414307	596.122819341118	652.814855271937	176.800426036159	567.481198057074	822.970863308725	124.609446253162	607.015695340733	713.698161319890	116.917222518752	638.289816145497	890.966039106465	30.709761160017	625.356761283354	999.875661153943	38.526063008387	396.060442351010	1074.654797563542	36.483459497027	315.700888516822	1156.745051064785	97.488528477350	344.134420621648	1286.064337546961	45.720698949665	316.443204324440	868.236220957146	1099.255434353592	196.323140856757	857.403987763704	838.371784412604	214.806788057930	1193.280339223611	1113.104106911336	717.038014904536	1365.829807734250	1229.731503581957	580.235314419943	
90	23.126214285714	847.406356385263	1005.561076300666	472.811564376601	1011.525394324591	1427.148492527456	277.246707202073	1133.481474770433	1353.230411790739	423.193973593435	1076.903424857896	1434.801240677150	604.024138836237	1037.966518169197	1488.075340671089	429.473430099102	1074.653398876747	936.918625532436	580.447636491079	1054.385086811361	952.505641055861	306.546558482947	1105.953448561916	730.138321587172	566.679852229649	1021.114941436305	624.451047473926	631.751823517252	1100.784792258486	561.451541233100	560.274987925800	1086.503363020997	452.521880261666	581.560498503964	1127.602273994134	763.656510172150	342.283658060644	1059.543932942805	635.963840436842	280.334367775363	1155.539975279059	570.525241974067	344.007062259612	1167.019105327695	499.106093454933	351.701589531182	1141.783052513845	424.153591693256	342.770257866278	1058.157225898500	306.591464344295	289.661871836431	1114.104901417816	196.430550462119	358.008664012312	1005.235253783497	388.568487191684	586.803685764530	881.558621523292	355.527624084861	646.233368147260	861.948872796380	247.659075722221	596.311245276835	657.013748865551	192.467823852264	567.391306403991	823.756976269800	130.115549139592	607.518220503227	713.936329590832	128.646785241349	638.144185755944	885.320879940003	29.754586147347	625.721165594996	991.680261617820	38.500192373391	396.014657031464	1066.434670339324	36.383194744102	315.624358076260	1148.629278420629	97.287071186626	344.054936805846	1277.950628518883	45.257136604718	316.358209951957	875.568012228179	1097.267479610127	191.591324671565	875.987849500235	835.929448699774	208.501371137719	1181.152681127782	1109.680779230411	717.870931630872	1361.470703481170	1215.972896088311	582.820443633550	
91	23.137857142857	846.111314592429	1005.938655604441	470.048109881019	1012.733462573284	1427.786038289615	275.097991375414	1133.245401746131	1353.627798261489	422.159755380040	1075.153763709573	1435.144595306514	602.585197287473	1037.714839376307	1488.672859798956	427.527121547244	1073.293992714497	937.543394880281	578.288491249170	1053.592352633321	953.139296927335	304.493800121764	1110.277329077327	733.092040206330	564.670862880086	1029.068152056187	625.623926766034	630.584095968195	1110.373949726964	564.184617851049	558.951674568340	1097.821995263432	454.151300773012	580.660092606378	1125.262455386223	762.669776558096	339.616498902813	1055.724733403096	635.912571745499	278.347855541182	1150.883490756145	569.647850197278	342.259480144581	1161.542033963946	498.264819659246	350.086421582987	1135.909330391109	423.487822810396	341.384883186075	1051.610096171239	306.250623865081	288.674822556703	1106.747045636234	196.047381606299	357.524523107180	1015.103742789940	390.715760484575	586.011890270219	890.314758950064	361.515756117465	645.378704630124	867.964068081640	253.911748714399	596.285866832671	662.499773453746	207.594684806470	567.134110443838	825.601051744812	135.911739506441	607.770439739722	715.544220216487	140.294447284133	637.874190727445	881.026130713224	29.218320157226	626.058399770109	983.487720031200	38.494282735667	395.949299032619	1058.220166066669	36.294222683367	315.537748518221	1140.524093608131	97.091915812156	343.968916380923	1269.840957061803	44.802757020032	316.270633379565	883.475381615735	1095.112026647892	186.724559477250	895.408428784428	833.807484708594	202.141670064775	1168.455532938006	1106.300962020451	718.534063145423	1357.009187173503	1200.599737465400	586.009948662742	
92	23.149500000000	844.658779135655	1006.204739730361	467.408364865972	1013.821713716465	1428.268231796497	273.089489169771	1132.851874678208	1353.882281598485	421.299999554256	1073.202735987313	1435.363774054238	601.298456636958	1037.386838752005	1489.163867244705	425.720751343885	1071.778078049986	938.106916609324	576.264209297223	1052.656150348202	953.721767601092	302.529979493234	1114.338707405861	736.301711840567	562.523365419635	1036.923397183193	627.158271168456	629.427852664364	1119.714755732254	567.398461230902	557.520300744624	1109.164459144633	456.344754468610	579.586905710526	1122.881664711566	761.772109321785	337.021888925422	1051.872278617059	635.868697557559	276.471182281791	1146.249980145057	568.800628381820	340.524125518793	1156.115797261247	497.455340940393	348.536461360829	1130.101947705976	422.829541656202	340.075568034379	1045.123103015141	305.943604447727	287.722012619355	1099.393883034497	195.666287814747	357.074694439884	1025.221418027025	393.245858172534	585.084834388262	899.565400641053	367.432753113667	644.461360699685	874.779183522065	260.125614773667	596.066906326155	669.183502965368	221.654805265646	566.740212896074	828.674211044428	141.783413492482	607.750270844491	718.644044426405	151.417234761041	637.498400429804	878.527686097368	29.270747409033	626.307157632218	975.300846547363	38.503961819447	395.866805180706	1050.013884447843	36.220614799353	315.443922978577	1132.423817109752	96.915702697559	343.881134828855	1261.730583279576	44.385656229573	316.179837953014	892.027588975149	1092.837198624876	181.745040233336	915.609319372365	832.088923927937	195.795226670666	1155.315320914104	1103.050959659053	718.968339422229	1352.303226544527	1183.653546566318	589.818245608628	
